Genre:Comedy
Language:English  http://www.imdb.com/title/tt1107812/
Source:DVD


Format : MPEG-4
Format profile : Base Media
Codec ID : isom
File size : 820 MiB
Duration : 1h 30mn
Overall bit rate : 1 260 Kbps
Movie name : National.Lampoons.Dirty.Movie.2011.DvDRip.x264.Feel-Free

Video
Format settings, CABAC : Yes
Format settings, ReFrames : 4 frames
Format settings, GOP : M=4, N=16
Codec ID : avc1
Codec ID/Info : Advanced Video Coding
Duration : 1h 30mn
Bit rate mode : Variable
Bit rate : 874 Kbps
Width : 720 pixels
Height : 384 pixels
Display aspect ratio : 1.875
Frame rate mode : Constant
Frame rate : 23.976 fps
Color space : YUV
Chroma subsampling : 4:2:0
Bit depth : 8 bits
Scan type : Progressive
Bits/(Pixel*Frame) : 0.132
Stream size : 566 MiB (69%)
Writing library : x264

Audio
ID : 2
Format : AAC
Format/Info : Advanced Audio Codec
Format version : Version 4
Format profile : LC
Codec ID : 40
Duration : 1h 30mn
Bit rate mode : Variable
Bit rate : 384 Kbps
Channel(s) : 6 channels
Channel positions : Front: L C R, Side: L R, LFE
Sampling rate : 48.0 KHz
Stream size : 250 MiB (30%)



Plot:
A sketch comedy film with a back story about the awful people behind the awful movie
 
http://www.postimg.com/29000/28353.jpg 
http://www.postimg.com/29000/28354.jpg 
http://www.postimg.com/29000/28357.jpg 
http://www.postimg.com/29000/28359.jpg